<svg width="24" height="25" viewBox="0 0 24 25" fill="none" xmlns="http://www.w3.org/2000/svg">
<path d="M20.4545 0.5C21.3949 0.5 22.2967 0.873538 22.9616 1.53844C23.6265 2.20334 24 3.10514 24 4.04545V20.9545C24 21.8949 23.6265 22.7967 22.9616 23.4616C22.2967 24.1265 21.3949 24.5 20.4545 24.5H3.54545C2.60514 24.5 1.70334 24.1265 1.03844 23.4616C0.373538 22.7967 0 21.8949 0 20.9545V4.04545C0 3.10514 0.373538 2.20334 1.03844 1.53844C1.70334 0.873538 2.60514 0.5 3.54545 0.5H20.4545ZM22.3636 7.59418H1.63636V20.9545C1.63636 22.0084 2.49164 22.8636 3.54545 22.8636H20.4545C20.9609 22.8636 21.4465 22.6625 21.8045 22.3045C22.1625 21.9465 22.3636 21.4609 22.3636 20.9545V7.59418ZM6.27164 16.3193C6.6333 16.3193 6.98014 16.4629 7.23587 16.7187C7.4916 16.9744 7.63527 17.3213 7.63527 17.6829C7.63527 18.0446 7.4916 18.3914 7.23587 18.6471C6.98014 18.9029 6.6333 19.0465 6.27164 19.0465C5.90998 19.0465 5.56313 18.9029 5.3074 18.6471C5.05167 18.3914 4.908 18.0446 4.908 17.6829C4.908 17.3213 5.05167 16.9744 5.3074 16.7187C5.56313 16.4629 5.90998 16.3193 6.27164 16.3193ZM12.0033 16.3193C12.3649 16.3193 12.7118 16.4629 12.9675 16.7187C13.2232 16.9744 13.3669 17.3213 13.3669 17.6829C13.3669 18.0446 13.2232 18.3914 12.9675 18.6471C12.7118 18.9029 12.3649 19.0465 12.0033 19.0465C11.6416 19.0465 11.2948 18.9029 11.039 18.6471C10.7833 18.3914 10.6396 18.0446 10.6396 17.6829C10.6396 17.3213 10.7833 16.9744 11.039 16.7187C11.2948 16.4629 11.6416 16.3193 12.0033 16.3193ZM6.27164 10.8647C6.6333 10.8647 6.98014 11.0084 7.23587 11.2641C7.4916 11.5199 7.63527 11.8667 7.63527 12.2284C7.63527 12.59 7.4916 12.9369 7.23587 13.1926C6.98014 13.4483 6.6333 13.592 6.27164 13.592C5.90998 13.592 5.56313 13.4483 5.3074 13.1926C5.05167 12.9369 4.908 12.59 4.908 12.2284C4.908 11.8667 5.05167 11.5199 5.3074 11.2641C5.56313 11.0084 5.90998 10.8647 6.27164 10.8647ZM12.0033 10.8647C12.3649 10.8647 12.7118 11.0084 12.9675 11.2641C13.2232 11.5199 13.3669 11.8667 13.3669 12.2284C13.3669 12.59 13.2232 12.9369 12.9675 13.1926C12.7118 13.4483 12.3649 13.592 12.0033 13.592C11.6416 13.592 11.2948 13.4483 11.039 13.1926C10.7833 12.9369 10.6396 12.59 10.6396 12.2284C10.6396 11.8667 10.7833 11.5199 11.039 11.2641C11.2948 11.0084 11.6416 10.8647 12.0033 10.8647ZM17.736 10.8647C18.0977 10.8647 18.4445 11.0084 18.7002 11.2641C18.956 11.5199 19.0996 11.8667 19.0996 12.2284C19.0996 12.59 18.956 12.9369 18.7002 13.1926C18.4445 13.4483 18.0977 13.592 17.736 13.592C17.3743 13.592 17.0275 13.4483 16.7718 13.1926C16.516 12.9369 16.3724 12.59 16.3724 12.2284C16.3724 11.8667 16.516 11.5199 16.7718 11.2641C17.0275 11.0084 17.3743 10.8647 17.736 10.8647ZM20.4545 2.13636H3.54545C3.03913 2.13636 2.55355 2.3375 2.19552 2.69552C1.8375 3.05355 1.63636 3.53913 1.63636 4.04545V5.95782H22.3636V4.04545C22.3636 3.53913 22.1625 3.05355 21.8045 2.69552C21.4465 2.3375 20.9609 2.13636 20.4545 2.13636Z" fill="#1B1B1B"/>
</svg>
